<svg width="87" height="40" viewBox="0 0 87 40" fill="none" xmlns="http://www.w3.org/2000/svg">
<path fill-rule="evenodd" clip-rule="evenodd" d="M22.5509 33.0039C22.5509 33.0039 22.7327 33.804 23.1812 33.5025C23.6297 33.2014 23.8115 32.7496 24.26 32.7496C24.7085 32.7496 26.578 32.3982 27.0265 32.7496C27.475 33.1011 27.5199 32.7995 27.7441 32.7995C27.9684 32.7995 28.6271 32.9165 28.6271 32.9165C29.2005 32.8567 29.0836 31.9453 28.6692 31.6786C28.0711 31.2101 27.2658 30.9091 26.6677 30.4401C26.6078 29.9883 26.5481 29.5365 26.4883 29.0847C26.6527 28.8507 26.8172 28.6162 26.9817 28.3818C26.9817 27.629 26.9817 26.8759 26.9817 26.1229C26.892 25.922 26.8022 25.7212 26.7125 25.5204C26.6826 24.9515 26.6527 24.3827 26.6228 23.8136C26.5481 23.7132 26.4733 23.6128 26.3986 23.5124C26.3986 23.2949 26.3986 23.0773 26.3986 22.8597C26.5481 22.6423 26.851 22.4247 27.0006 22.2071C27.0454 21.7888 26.8449 21.4935 26.8898 21.0751C26.7851 20.5397 26.7723 19.8811 26.6677 19.3456C26.6677 18.693 26.6677 18.0403 26.6677 17.3878C27.1016 17.2584 27.2067 17.0661 27.2377 16.8716C27.2775 16.6212 27.1549 16.3264 27.0265 15.731C26.9667 12.6018 26.9376 9.34942 26.8778 6.2201C27.1164 5.84612 27.4024 5.65266 27.4085 5.37559C27.4131 5.15988 27.1815 4.98004 26.892 4.73676C26.892 4.51923 26.892 4.30181 26.892 4.08411C26.892 4.08411 27.3854 3.08003 27.7889 3.08003C28.1927 3.08003 28.4618 2.77889 28.4618 2.47769C28.8301 1.7459 28.0581 1.67442 28.0581 1.67442C27.2038 1.65669 26.2361 1.70042 25.4027 1.68285C24.6675 1.6672 24.0641 1.58977 23.3487 1.57402C23.0348 1.59086 22.7208 1.60745 22.4068 1.62419C21.6352 1.85852 21.7973 2.27753 22.0929 2.5116C22.4516 2.73746 22.7578 2.99616 23.1693 3.00479C23.6714 3.01524 24.0711 3.1798 24.2457 3.68246C24.2906 5.69056 24.3354 7.69872 24.3802 9.70677C24.3952 11.1878 24.4409 12.6689 24.4557 14.1496C24.4707 15.6305 24.4552 17.1116 24.47 18.5925C24.4999 20.333 24.5298 22.0733 24.5597 23.8136C24.5597 23.8136 24.47 24.4663 24.3354 24.6169C24.2009 24.7674 24.2457 26.0727 24.2457 26.0727C24.7425 26.5054 24.6369 26.4448 24.2906 27.0266C24.2606 28.3152 24.2307 29.6036 24.2009 30.8919C24.0813 31.1264 23.9616 31.3609 23.842 31.5949C23.842 31.5949 22.5509 32.3514 22.5509 33.0039ZM0.830032 39.2445C0.164957 39.1078 0.0402546 38.7859 0.276487 38.5962C0.418249 38.4823 0.797213 38.4865 0.967582 38.4069C1.2169 38.2894 1.47156 38.1355 1.62166 37.9499C1.87819 37.6322 1.72258 36.8971 2.02871 36.2981C2.32288 33.7713 2.41101 30.4235 2.11699 29.2973C1.94048 27.5617 2.12167 21.7966 2.12167 21.0659C2.31701 20.7149 2.39031 20.6861 2.39182 20.071C2.39234 19.8306 2.55409 19.4565 2.38179 19.1591C2.13186 18.8738 2.2074 17.7582 2.18785 17.1294C2.15894 16.1933 2.22763 16.201 2.48811 15.3529C2.58617 15.0339 2.61939 14.6543 2.48811 14.3483C2.27588 13.8539 1.96902 14.4251 1.98945 13.4322C2.03952 11.0226 2.12937 8.5984 2.06599 6.1898C2.07972 5.97517 2.43716 5.93598 2.50714 5.7331C2.5961 5.47517 2.62558 5.15614 2.50714 4.91116C2.44007 4.77228 2.06468 4.9529 1.95456 4.84767C1.28157 4.20463 0.4359 3.8007 0.0459265 2.94272C-0.105231 2.60997 0.138558 1.8736 0.459003 1.71445C0.989876 1.4507 1.97734 1.72335 2.5582 1.62316C2.87057 1.56934 3.06824 1.38347 3.38467 1.36954C5.85269 1.26082 8.39237 1.01411 10.8516 1.25774C11.2452 1.29674 11.375 1.9912 11.7338 2.16361C12.2256 2.39997 12.9448 2.34933 13.3218 2.75268C13.9261 3.39895 14.3597 3.93136 14.4364 4.82724C14.5305 5.92667 14.7194 7.17194 14.7102 8.01645C14.7024 8.72365 14.4898 9.36195 14.1745 9.97021C13.7427 10.8039 13.2286 11.5818 12.672 12.4053C12.3511 12.8799 11.7799 13.3206 11.6455 13.8618C11.5067 14.4213 12.9521 14.0105 13.2479 14.5004C13.5321 14.9714 13.0054 15.5232 13.1643 16.0538C13.3062 16.5271 14.1257 16.5732 14.223 17.0584C14.474 18.3107 13.9201 19.635 14.1348 20.8944C14.2034 21.2976 14.8433 21.312 14.9054 21.7164C14.9809 22.5903 14.954 23.5154 14.9608 24.4438C14.9679 25.432 15.0062 26.4247 14.9936 27.3641C14.9693 27.7182 14.5057 27.9253 14.4643 28.2773C14.3539 29.2147 14.6759 30.2732 14.469 31.1925C14.2509 32.1606 13.4725 32.8442 13.1689 33.7874C12.9059 34.6042 12.9805 35.7969 12.5561 36.309C11.8542 36.5295 10.9805 37.0234 10.4277 37.4352C9.61975 38.0362 9.10326 38.7251 8.85489 38.7469C8.5393 39.0277 7.87166 38.84 7.48037 38.9861C7.11954 39.1203 7.08553 39.4228 6.70505 39.3735C6.40459 39.335 6.49824 39.0854 6.26391 38.8873C6.12748 38.7714 5.86513 38.7641 5.73457 38.8873C4.94263 39.5248 5.53331 39.3579 4.63405 39.2747C3.72055 39.1904 1.94245 39.4722 0.830397 39.2445H0.830032ZM5.94763 35.5785C6.15352 35.1829 6.35942 34.7872 6.56536 34.391C6.5064 33.0824 6.44765 31.7732 6.38879 30.4641C6.56536 30.2202 6.74177 29.9769 6.91818 29.733C6.91818 28.4145 6.91818 27.096 6.91818 25.7773C6.91818 25.1778 6.83462 24.5784 6.83462 23.9792C6.21529 23.4669 6.51143 23.4744 7.01103 22.8833C7.01103 22.3049 7.15053 21.8382 7.15053 21.2597C7.09157 20.7727 7.03282 20.2855 6.97396 19.7984C7.0623 19.5549 7.15052 19.3114 7.2387 19.0678C7.2387 18.3353 7.32226 17.7425 7.32226 17.0099C7.32226 16.322 7.34217 16.0916 7.46794 16.1347C7.59371 16.1777 7.82549 16.4946 8.24865 16.9015C8.57018 17.2107 8.89191 17.52 9.21353 17.8291C9.80765 18.4 10.3862 18.452 10.1454 19.3875C9.92037 20.2627 10.5671 20.5055 10.3661 21.374C10.2126 22.0373 10.0107 22.4429 10.0554 22.8542C10.0821 23.1009 10.1977 23.3497 10.4653 23.6574C10.7126 23.9417 10.795 23.9239 10.6472 24.2738C10.418 24.8161 10.2226 25.1323 10.1997 25.4578C10.1701 25.8761 10.398 26.0683 10.5979 26.8073C10.7614 27.4117 10.7461 27.8124 10.5948 28.4187C10.4156 29.1377 10.2363 29.8568 10.0571 30.5758C10.0369 31.1197 9.98733 31.664 9.9487 32.2084C9.89026 33.0377 9.77972 33.059 9.20308 33.6517C8.6792 34.1903 8.00497 34.651 7.49955 35.1324C6.94084 35.3456 6.50619 35.3654 5.94743 35.5785H5.94763ZM7.29746 12.5018C7.74506 12.515 7.94524 12.5593 8.084 12.5021C8.22282 12.4448 8.30033 12.286 8.50279 11.8933C8.76426 11.3856 9.15155 10.751 9.47276 10.7033C10.0139 10.623 10.2962 10.5424 10.2962 10.5424C10.2962 10.5424 10.5794 10.4888 10.4826 9.7909C10.3856 9.093 10.1859 8.42188 10.3619 8.23403C10.5377 8.04618 10.5749 7.50937 10.3877 7.29459C10.2007 7.07996 10.0227 6.86513 10.325 6.56992C10.6273 6.27465 10.8356 5.78035 10.1134 5.86094C9.39124 5.94148 9.40019 5.6289 9.31674 5.41407C9.23319 5.19939 8.44545 5.24842 8.03356 5.22476C7.6221 5.3053 7.2761 5.27842 7.28795 5.70783C7.29996 6.13723 7.23076 8.20726 7.23669 8.42199C7.24261 8.63672 7.29746 12.5018 7.29746 12.5018ZM30.1418 31.3443C30.1096 31.5268 29.6907 31.5278 29.7229 31.7108C29.7679 31.9661 29.7846 32.3649 30.0419 32.3982C30.7879 32.4949 31.8107 32.198 32.5505 32.3347C32.8427 32.3888 32.8586 32.8869 33.1265 33.0153C33.3465 33.0117 33.6852 33.0195 33.9643 33.0153C34.1792 32.9035 34.1214 32.5094 34.3309 32.3872C34.5888 32.2365 34.9406 32.1793 35.221 32.2822C35.372 32.3379 35.166 32.7346 35.3258 32.7538C36.6309 32.7044 37.7968 32.8474 39.0316 32.7538C39.2782 32.7132 39.0269 32.3602 39.229 32.2136C39.4586 32.0467 40.028 32.3378 40.0668 32.0566C40.2673 30.6023 39.9543 28.9786 40.0909 27.5174C40.1346 27.0495 40.5834 26.7722 40.6838 26.313C40.7172 26.1601 40.9005 26.1574 40.9151 26.0068C40.966 25.4824 40.9566 24.8464 40.824 24.33C40.648 24.1496 40.1102 24.084 39.9338 24.1661C39.735 24.3125 39.9158 24.8321 39.7823 25.0396C39.7163 25.1424 39.4812 24.9366 39.4157 25.0396C39.3514 25.1409 39.4346 25.3071 39.4641 25.4385C39.4817 25.5172 39.4801 25.5836 39.4157 25.6157C39.0723 25.7873 38.5667 25.38 38.2637 25.6157C37.9664 25.8469 38.3002 26.2944 38.0487 26.5748C37.6409 27.0293 36.7671 27.2955 36.361 27.7515C35.878 28.2934 35.9211 28.8466 35.3662 29.3145C34.9317 29.6805 34.1935 29.719 33.6671 29.9327C33.0569 30.1807 32.7655 30.6377 32.1316 30.816C31.9401 30.8701 31.7064 30.5353 31.7651 30.345C32.24 28.8055 32.8571 27.2577 33.3699 25.7303C33.6987 24.7504 33.8531 24.1322 34.2084 23.1614C34.5762 22.1567 35.0565 20.9149 35.6569 20.0294C35.7751 19.8549 36.1697 19.9688 36.2329 19.7676C36.3899 19.2681 36.0961 18.702 36.2329 18.1967C36.3341 17.8226 36.7278 17.4637 37.0538 17.2541C37.2739 17.1126 37.6253 17.3098 37.7225 17.0668C37.9495 16.4994 37.7374 15.8984 37.8804 15.3043C37.9767 14.9041 38.2516 14.6588 38.4266 14.286C38.6587 13.7912 38.6417 13.3617 38.8978 12.8788C39.1063 12.486 39.545 11.9361 39.6713 11.5095C39.8448 10.9237 39.7026 10.6362 39.7591 10.0278C39.7742 9.864 40.0142 9.77333 40.0209 9.60887C40.1022 7.63836 40.2065 5.66087 40.0909 3.69187C40.0815 3.53142 39.7211 3.53835 39.7243 3.37769C39.7368 2.77598 39.8098 2.24436 39.7767 1.70208C39.7703 1.59612 39.8069 1.50934 39.701 1.50492C38.0613 1.43613 36.4429 1.47347 34.8021 1.4926C33.4582 1.50815 32.1109 1.40042 30.7701 1.4926C30.5673 1.50654 30.3854 1.54141 30.2465 1.68975C30.1132 1.83205 30.047 2.13574 30.0547 2.3304C30.09 3.20549 30.0372 4.1582 30.0547 5.21042C30.0578 5.40539 30.442 5.28872 30.5083 5.47225C30.6929 5.98344 30.7071 6.55375 30.6654 7.09551C30.6521 7.26958 30.4405 7.50395 30.4446 7.67823C30.5287 8.28399 30.6072 8.7121 30.7178 9.29477C30.7814 9.52011 30.9752 9.69611 31.032 9.92316C31.0997 10.1946 30.8522 10.7428 31.1311 10.761C31.2237 10.7669 31.547 10.8209 31.7127 10.761C31.9257 10.6838 31.6343 10.2931 31.7127 10.0802C31.7682 9.9293 32.0537 9.92478 32.0792 9.7661C32.2177 8.90386 31.9771 7.89348 32.1139 7.03082C32.1556 6.76795 32.3062 6.49027 32.5328 6.35015C32.7255 6.23083 33.0742 6.52916 33.2135 6.35015C33.4066 6.10178 33.2166 5.81567 33.336 5.52461C33.5069 5.1081 33.7849 4.72402 34.1214 4.42496C34.4305 4.15019 34.7397 3.82134 35.151 3.77855C36.0704 3.68304 37.1702 3.76877 38.4153 3.71516C38.532 3.70996 38.5634 3.88945 38.5723 4.00607C38.6164 4.58032 38.7209 5.36052 38.5723 5.73409C38.3567 6.27626 37.8689 6.8814 37.3737 7.44448C37.0349 7.82949 36.6924 8.17023 36.431 8.55617C36.1177 9.01885 36.5858 9.64979 36.4254 10.185C36.2612 10.7325 35.8127 11.3144 35.4652 11.7682C35.18 12.1405 34.7609 12.331 34.4937 12.7162C34.1599 13.1972 33.9656 13.6709 33.7549 14.217C33.5797 14.6711 33.4667 15.1504 33.3883 15.6308C33.3264 16.0102 33.5077 16.4392 33.336 16.7828C33.2101 17.0346 32.9261 16.9881 32.743 17.2017C32.4891 17.4981 32.3403 17.878 32.2194 18.249C32.0761 18.6884 32.0643 18.9487 31.8407 19.3531C31.5898 19.8066 31.0862 20.2447 30.8579 20.7101C30.6089 21.2176 30.5804 21.8344 30.456 22.3857C30.3356 22.919 30.2349 23.4212 30.1248 23.9566C29.9899 24.6119 29.8492 25.2777 29.863 25.9465C29.8671 26.15 30.0824 26.2901 30.1772 26.4701C30.2572 26.6221 30.4409 26.7784 30.3866 26.9414C30.3125 27.1641 29.8961 27.1802 29.863 27.4127C29.8288 27.6527 29.8899 27.8743 30.0661 28.0412C30.2193 28.1857 30.5321 28.1228 30.6421 28.3027C30.7604 28.4967 30.7392 28.7784 30.6421 28.9833C30.5613 29.1544 30.2778 29.1127 30.2409 29.2978C30.0903 30.0512 30.2751 30.5878 30.1418 31.3443ZM75.5427 38.7652C75.4445 38.4532 75.6899 38.3923 75.8531 38.2296C76.0918 37.9915 76.3226 37.7591 76.4172 37.2901C76.4531 37.1123 76.6351 36.8248 76.6772 36.5399C76.7391 36.1239 76.6444 35.6903 76.5311 35.4215C76.3824 35.0695 76.1386 34.886 76.227 34.5501C76.2581 34.3354 76.7438 34.3089 77.1264 34.1389C77.3271 34.05 77.4992 33.8758 77.5632 33.712C77.6469 33.4963 77.3682 33.5331 77.2262 33.2591C77.075 32.9675 77.0526 32.5308 76.9361 32.3134C76.7328 31.9349 76.3611 31.4269 76.3476 30.997C76.3112 29.85 76.6434 28.6921 76.686 27.5886C76.7219 26.6632 76.9408 26.4427 76.8701 25.4945C76.8353 25.0224 76.5816 24.6788 76.3195 24.1968C76.1027 23.7973 75.8178 23.4019 75.7086 23.0251C75.5147 22.3545 75.7096 21.5597 75.5921 20.8716C75.5692 20.7367 75.2313 20.5718 75.2188 20.4354C75.1315 19.4908 75.2381 18.5235 75.1772 17.5892C75.146 17.4134 75.0036 17.38 74.9869 17.2023C74.9375 16.6785 74.9864 16.1685 74.9849 15.7158C74.9833 15.3163 74.9282 14.9749 74.9282 14.5107C74.9282 14.3376 74.7847 14.219 74.779 14.0459C74.7441 13.0244 74.7868 11.8964 74.7733 10.8732C74.7587 9.78388 74.6921 8.79925 74.779 7.71458C74.794 7.53173 75.1637 7.53614 75.1564 7.35291C75.1221 6.52176 75.0504 6.19121 75.0696 5.35522C75.0717 5.25877 75.2693 5.03463 75.2771 4.93845C75.3348 4.24294 75.4211 3.54677 75.2438 2.95156C75.1159 2.52044 74.7925 2.38614 74.4213 2.10803C74.0937 1.86237 73.7282 1.46302 73.4251 1.23919C73.0372 0.952561 72.7788 0.722021 72.4851 0.292772C72.3083 0.0344215 72.6 0.0118601 72.9254 0.0023455C73.3435 -0.00987271 73.8 0.026628 74.1977 0.0889148C74.3324 0.109972 74.5856 0.342011 74.7129 0.391352C75.0197 0.510311 75.2204 0.355846 75.5344 0.453851C75.7741 0.528772 76.7749 1.05057 77.0443 1.20576C77.4124 1.41779 77.5315 1.7259 77.9157 1.906C77.9848 1.93839 79.1718 2.27815 79.3096 2.31262C79.6309 2.39284 79.8306 2.1579 80.1519 2.23812C80.5252 2.33119 81.1891 2.51924 81.6082 2.64469C81.8442 2.7153 81.9934 2.9943 82.2352 3.04244C83.4076 3.27641 83.1981 2.88559 84.1267 3.81401C84.4002 4.0876 84.852 4.30731 85.0558 4.63606C85.3438 5.09998 85.374 5.66862 85.557 6.17425C85.6994 6.56736 86.0176 6.89029 86.093 7.308C86.2963 8.43212 86.0842 9.60106 86.222 10.7351C86.2641 11.0814 86.6202 11.4468 86.6577 11.7938C86.7996 13.1222 86.8235 14.4339 86.6618 15.76C86.6072 16.207 86.2308 16.3888 86.1637 16.8341C86.0519 17.581 86.275 18.3459 86.222 19.0994C86.197 19.4603 85.9963 19.837 85.8071 20.145C85.6688 20.3693 85.3527 20.4501 85.2513 20.6929C84.9845 21.3303 85.0516 22.2018 84.9279 22.8925C84.8894 24.2108 84.9164 25.2335 84.9731 26.5509C85.0131 27.4796 85.1083 28.3131 84.9898 29.2349C84.9482 29.5542 84.6809 29.7294 84.6331 30.0481C84.501 30.9289 84.6144 31.8335 84.5291 32.72C84.5145 32.8708 84.291 33.0455 84.2593 33.1936C84.2 34.0037 84.1433 35.186 83.7903 36.0979C83.5579 36.6995 82.9927 37.3057 82.4499 37.6541C81.9243 37.9915 81.3591 38.0643 80.7534 38.2187C80.3707 38.3159 79.9423 38.2691 79.5919 38.4506C79.3819 38.5598 79.5228 38.5613 79.3309 38.6986C79.2202 38.7771 79.0288 38.7839 78.9243 38.6986C78.7767 38.5775 78.8224 38.528 78.6503 38.4464C78.3878 38.3222 78.0457 38.332 77.7789 38.4464C77.5866 38.5291 77.6567 38.6794 77.4509 38.7194C77.0354 38.8005 76.5488 38.9055 76.0996 38.8936C75.8308 38.8868 75.6186 39.008 75.5427 38.7652ZM79.4417 8.93604C80.025 8.90516 80.1394 8.87349 80.6588 9.15248C81.1959 9.44047 81.3082 9.63044 81.6362 10.1508C81.8057 10.3141 81.9747 10.4774 82.1437 10.6406C82.8336 11.3065 83.1591 12.2464 83.4409 13.1271C83.4872 14.0832 83.6925 15.7583 83.2153 16.6259C82.9771 17.059 82.883 17.3933 82.8425 17.7607C82.7296 18.7889 82.438 18.6284 82.1411 19.407C82.0605 19.6182 82.0782 19.881 82.0709 20.3823C82.0449 22.1723 82.0184 23.9625 81.9924 25.7523C81.9757 26.896 81.7605 27.4417 81.2983 28.4977C81.0269 29.0026 80.8844 29.328 80.8844 29.901C80.8844 30.58 80.7456 30.893 80.4758 31.5117C80.3115 31.8881 80.1467 32.265 79.9824 32.642C79.7874 33.0886 79.6085 33.2487 79.4791 33.189C79.3496 33.1297 79.2696 32.8494 79.2716 32.4158C79.2831 30.2306 79.2945 28.0459 79.3059 25.8606C79.3309 23.5374 79.3559 21.2142 79.3808 18.8911C79.3517 18.3922 79.3704 18.2816 79.0429 17.9116C79.0122 17.1595 78.8671 16.8193 78.629 16.1033C78.3285 15.5387 78.3628 15.1268 78.3555 14.4814C78.3368 12.8668 78.3176 11.2519 78.2989 9.63726C78.2874 8.64644 78.5115 8.98517 79.4417 8.93604ZM41.3645 36.7151C41.1848 35.8364 41.3104 35.1382 41.3575 34.4773C41.38 34.3198 41.6978 34.4669 41.7842 34.3338C41.913 34.1347 42.0294 33.8618 41.9442 33.6403C41.8932 33.5077 41.8028 33.6907 41.7265 33.5706C41.6211 33.4052 41.6581 33.138 41.7798 32.9841C41.9573 32.759 42.3124 32.8172 42.4336 32.5573C42.599 32.2027 42.3152 31.7566 42.4336 31.3838C42.4713 31.2652 42.7777 31.5049 42.807 31.3838C42.9452 30.8134 42.7733 30.2041 42.8603 29.6238C42.883 29.4725 43.0166 29.4024 43.0341 29.2506C43.1081 28.6147 43.1467 27.9606 43.0341 27.3304C42.9643 26.9391 42.6482 26.6574 42.5937 26.2637C42.3957 24.8356 42.3358 23.2807 42.5196 21.8506C42.6623 20.7404 43.3701 19.0236 43.7858 17.9843C44.0458 17.3341 44.1733 17.5369 44.4071 16.8766C44.4784 16.6748 44.528 16.4397 44.4604 16.2366C44.3762 15.9837 44.0776 15.7903 44.1196 15.527C44.1712 15.2043 44.5679 15.2125 44.6737 14.9032C44.8175 14.4828 44.5281 13.9897 44.6737 13.5698C44.8451 13.0759 45.4356 12.7922 45.5804 12.2898C45.7187 11.8104 45.5705 11.0446 45.7059 10.5643C45.9735 9.61537 46.2951 9.00242 46.7538 8.12963C47.0247 7.61428 47.4955 7.17886 47.707 6.63621C47.9109 6.11338 47.8901 5.42119 47.9805 4.98284C47.6472 4.56617 46.8823 5.14771 46.3805 4.96651C46.1259 4.87464 46.1268 4.45835 45.8747 4.3591C45.335 4.32239 44.8189 4.30996 44.4347 4.59815C43.9193 4.98466 43.9152 5.43778 43.7137 6.04952C43.4126 6.9636 43.6421 7.99055 43.2663 8.87629C43.1177 9.22656 42.5115 9.32504 42.2203 9.56967C42.0663 9.69902 41.9947 9.8339 41.7936 9.8339C41.5925 9.8339 41.4171 9.76443 41.3669 9.56967C41.2648 9.17385 41.3868 8.75141 41.3669 8.34296C41.3513 8.02144 41.1791 7.69441 41.2603 7.38292C41.3026 7.22065 41.674 7.2835 41.687 7.11625C41.8464 5.28372 41.6272 3.463 41.6552 1.7119C41.665 1.09709 41.8282 1.18824 42.4334 1.18211C43.4528 1.1716 45.0686 1.1795 46.2403 1.17357C48.2961 1.16328 50.3571 1.08654 52.4072 1.14269C52.7124 1.16479 53.1096 1.27808 53.1309 1.58317C53.1741 2.20011 52.7607 2.795 52.4748 3.34326C52.3235 3.63301 51.9855 3.82243 51.8743 4.12945C51.685 4.64984 51.8904 5.26646 51.6907 5.78285C51.5685 6.09974 50.9472 6.15834 50.8282 6.47623C50.6592 6.92591 50.9509 7.46938 50.7746 7.91625C50.6873 8.13815 50.2141 8.0114 50.1346 8.23627C49.8663 8.99733 50.0238 9.85697 49.8148 10.6364C49.6989 11.0666 49.3729 11.3683 49.3141 11.8098C49.154 13.0081 49.4181 14.2322 49.3141 15.4366C49.2913 15.6981 49.0152 15.8785 48.9403 16.13C48.7646 16.7214 48.6538 17.3605 48.4511 17.9433C48.3637 18.1951 48.0393 18.3257 47.9712 18.5834C47.871 18.9615 48.122 19.396 47.9712 19.7567C47.7813 20.2103 47.1131 20.3958 47.0111 20.8768C46.7232 22.2343 47.1791 23.6656 46.9672 25.0369C46.8724 25.6507 46.3315 26.1328 46.2205 26.7437C46.0774 27.5307 46.3238 28.4613 46.1276 29.2365C45.9383 29.9852 45.3957 30.6341 45.1236 31.3562C45.0599 32.0649 44.2108 32.7153 44.6737 33.2508C45.2322 33.3247 46.159 33.4385 46.8071 33.1437C47.1055 33.0086 46.76 32.3826 47.0205 32.1839C47.8169 31.5756 48.7308 31.3562 49.6245 30.9039C50.1356 30.645 50.7783 30.398 51.2342 30.0507C51.4656 29.8739 51.4921 29.4543 51.7672 29.3571C51.933 29.2984 51.9673 29.7008 52.1405 29.7304C52.7363 29.8318 53.2531 29.5771 53.838 29.7304C54.072 29.7918 54.0647 30.1063 54.1255 30.3403C54.1801 30.5498 54.2747 30.7755 54.1583 30.9569C54.0881 31.0661 53.8338 30.9445 53.7844 31.064C53.6831 31.3105 53.7226 31.6048 53.7844 31.8637C53.8333 32.0654 54.0179 32.1907 54.0351 32.3971C54.1266 33.4781 54.1567 34.573 54.0351 35.6508C54.0096 35.877 53.8812 36.1141 53.655 36.1374C52.1165 36.0667 50.6946 36.1796 49.154 36.1843C48.9954 36.1702 49.0864 35.8895 48.9403 35.8271C48.5431 35.6565 47.8268 35.6331 47.4052 35.7298C46.9148 35.8421 46.8738 36.2456 46.3805 36.3438C45.4915 36.5217 44.4639 36.3475 43.5675 36.4832C43.2506 36.531 43.0087 36.7998 42.6979 36.8773C42.2666 36.9849 41.5866 37.0998 41.3645 36.7151ZM17.607 39.2201C16.9419 39.4535 16.166 39.2206 15.461 39.2357C15.2438 39.2403 14.8901 39.4109 14.6814 39.3495C14.4536 39.283 14.0946 38.8312 14.237 38.6409C14.7933 37.899 15.8902 37.8064 16.3981 37.0312C16.6969 36.5752 16.4171 35.9612 16.5454 35.4314C16.5849 35.2687 16.87 35.2837 16.9543 35.1392C17.0228 35.0217 17.043 34.834 16.9543 34.7305C16.7518 34.494 16.6235 34.99 16.5436 34.2819C16.472 33.6486 16.457 33.0054 16.5158 32.3727C16.5527 31.9697 16.8456 32.055 16.901 31.8424C17.0041 31.4467 16.7895 31.1535 16.8958 30.7583C16.9434 30.581 17.272 30.6257 17.3631 30.4661C17.4499 30.3143 17.4601 30.0866 17.3631 29.9405C17.1641 29.642 16.6233 29.6467 16.563 29.2932C16.4522 28.6428 16.5116 27.9445 16.523 27.2992C16.5352 26.6119 16.488 25.9226 16.5453 25.2223C16.5559 25.0924 16.85 25.098 16.8958 24.9758C16.9845 24.739 16.9284 24.4675 16.8958 24.2165C16.8697 24.0152 16.9315 23.6033 16.9161 23.4008C16.8924 23.0898 16.7588 22.9742 16.9034 22.6978C17.0042 22.5053 17.3328 22.6212 17.3631 22.4058C17.5228 21.2683 17.1818 20.1019 17.3046 18.9596C17.3255 18.7661 17.6302 18.7969 17.6814 18.6092C17.7638 18.3063 17.7893 17.9582 17.6551 17.6746C17.5918 17.5407 17.2933 17.5402 17.2818 17.3925C17.1506 15.7233 17.3788 14.1453 17.2462 12.4761C17.2338 12.3198 16.8499 12.5391 16.8428 11.8607C16.8349 11.1498 16.7694 10.4871 16.779 9.9645C16.7864 9.56353 17.6515 9.55272 17.6424 9.15175C17.6284 8.54074 17.7247 7.85116 17.5839 7.22424C17.5387 7.02266 17.2757 7.056 17.1879 6.86877C17.1051 6.69293 17.1832 6.51756 17.2589 6.33814C17.3498 6.12221 17.5967 5.98593 17.6551 5.75898C17.762 5.3444 17.7513 4.89139 17.6551 4.47399C17.6236 4.33741 17.3879 4.20395 17.3224 4.08C17.201 3.85061 17.2559 3.64815 17.0938 3.44538C16.9818 3.30547 16.6511 3.39142 16.5149 3.27511C16.1642 2.97564 15.962 2.64266 15.6679 2.36991C15.3914 2.11375 15.0187 1.9207 14.8057 1.54355C14.6688 1.30127 14.8282 0.882155 15.0495 0.712972C15.2194 0.583095 15.4855 0.612471 15.6743 0.712972C15.8277 0.794808 15.8247 1.12075 15.9968 1.14461C16.7496 1.24948 17.4968 0.918089 18.2392 1.08124C18.5628 1.15242 18.5801 1.56118 18.8817 1.69808C19.0835 1.78974 19.4472 1.61255 19.6309 1.7366C19.9004 1.91873 20.1291 2.30622 20.3416 2.52261C20.6147 2.80082 20.8501 2.92467 20.9896 3.31862C21.1656 3.81603 21.0885 4.32639 21.0808 4.84377C21.074 5.30026 21.1483 5.76257 21.1064 6.22629C21.0923 6.38227 20.7927 6.30886 20.7508 6.4599C20.6773 6.72506 20.7299 7.02189 20.8677 7.25986C20.9679 7.43315 21.2393 7.34492 21.3045 7.53407C21.4568 7.97611 21.4761 8.51797 21.3629 8.97155C21.3208 9.14042 20.9948 9.0316 20.9845 9.20521C20.8533 11.4015 20.8206 13.6168 21.0429 15.8055C21.0806 16.1775 21.6688 16.31 21.7083 16.6816C21.9287 18.7533 21.728 20.8501 21.6423 22.9315C21.6302 23.2275 21.4835 23.5996 21.3629 23.8205C21.2279 24.0674 21.3118 24.3141 21.3169 24.5866C21.3235 24.937 21.2816 25.3191 21.3349 25.6767C21.3654 25.881 21.781 26.0755 21.7667 26.2816C21.7273 26.8494 21.8081 27.1178 21.8428 27.6776C21.8595 27.9471 21.3687 28.1155 21.2131 28.336C21.1011 28.4946 21.033 28.8019 21.1242 28.9734C21.2103 29.1351 21.3648 29.053 21.4137 29.2297C21.4829 29.4798 21.4888 29.6909 21.3629 29.9181C21.2817 30.0642 20.9824 30.045 20.954 30.2098C20.8745 30.672 21.1369 31.1478 21.0709 31.612C21.0511 31.7509 20.7411 31.7067 20.7204 31.8455C20.6166 32.5385 20.8379 33.2571 20.7204 33.9481C20.676 34.2091 20.2718 34.3266 20.2531 34.5907C20.2426 34.7383 20.5922 34.6354 20.662 34.7659C20.7722 34.9728 20.4955 35.4012 20.7204 35.4668C21.4677 35.6856 22.3926 35.629 23.1457 35.4314C23.5722 35.3191 23.7527 34.7212 24.192 34.6796C24.7211 34.6297 25.1115 34.9791 25.6345 35.0727C26.3241 35.1969 27.0784 35.2192 27.7549 35.0373C28.1542 34.9297 28.3861 34.5059 28.7962 34.4513C30.5713 34.2127 32.2186 34.3593 34.0097 34.35C35.7032 34.3406 37.8698 34.2553 39.1271 34.3926C39.8442 34.4165 39.0666 36.9532 39.3252 38.293C39.3814 38.5847 39.6306 38.748 39.7804 39.0178C40.0192 39.4483 40.1118 39.6672 39.4917 39.6646C38.3251 39.6589 37.1447 39.7488 35.879 39.6953C35.6303 39.6849 35.6423 39.2055 35.4117 39.1109C35.159 39.0074 34.8594 39.2336 34.594 39.1696C34.1962 39.0734 33.748 38.6923 33.342 38.644C32.2595 38.514 31.1687 38.7854 30.0889 38.6362C29.8438 38.6024 29.81 38.1282 29.5632 38.11C27.039 37.9255 24.6204 38.1906 22.0937 38.0529C21.5525 38.0232 21.5031 37.8345 21.1596 37.7347C20.6735 37.5943 19.8043 37.5381 19.3464 37.7528C18.4931 38.1521 18.4958 38.9076 17.6069 39.2201H17.607ZM47.9925 29.3509C47.4652 29.3353 47.4301 28.4883 47.472 27.9689C47.5149 27.4376 48.2088 27.4654 48.4563 26.9935C48.6367 26.6499 48.3663 26.0458 48.5722 25.7166C48.7937 25.3621 49.3942 25.3753 49.6157 25.0208C49.7426 24.8183 49.5533 24.4298 49.559 24.1909C49.5731 23.6254 49.6999 23.2088 49.6739 22.6438C49.6604 22.3499 49.5382 21.819 49.5939 21.5301C49.6703 21.1355 49.9053 21.2312 50.0218 20.8464C50.1668 20.3652 49.9256 19.8175 50.0795 19.339C50.1408 19.1498 50.6368 19.2448 50.6015 19.0491C50.5583 18.811 50.1242 18.9392 50.081 18.7012C49.9495 17.9767 49.9422 17.1241 50.1377 16.4142C50.2599 15.9701 50.7637 15.6304 50.8916 15.1876C51.0252 14.7237 50.7424 14.1976 50.8916 13.7381C50.9925 13.4262 51.5077 13.3604 51.5873 13.0424C51.7744 12.2923 51.6075 11.3723 51.8025 10.6243C51.9049 10.2317 52.1098 9.78679 52.3609 9.54076C52.5117 9.39305 52.6474 9.28573 52.7181 9.05296C52.8148 8.73415 52.5772 8.46602 52.6318 8.13727C52.6801 7.84643 52.9021 7.65973 53.043 7.40107C53.2214 7.07445 53.2957 6.66065 53.4668 6.3306C53.7163 5.84806 54.0522 5.44438 54.2311 4.93101C54.3647 4.54824 54.0777 3.92391 54.2487 3.55607C54.491 3.03521 55.117 3.04805 55.3557 2.52542C55.5485 2.10324 55.2111 1.55145 55.4139 1.13395C55.561 0.829795 55.8933 0.69551 56.2307 0.682096C56.4782 0.672269 56.7787 0.84352 56.8629 1.07593C57.0288 1.53133 56.879 2.07855 57.0667 2.52542C57.3958 3.31129 57.9667 3.77449 58.2834 4.56566C58.4482 4.97816 58.2698 5.57134 58.3707 6.00408C58.508 6.59237 58.6041 7.18566 58.7986 7.75857C59.0398 8.472 59.3856 9.16402 59.5884 9.88859C59.7677 10.5303 59.8109 11.2265 59.9492 11.8796C60.0506 12.3562 60.2357 12.7938 60.4 13.2514C60.4701 13.4478 60.7078 13.398 60.7644 13.5992C60.8637 13.9546 60.5653 14.3412 60.6485 14.7008C60.7473 15.1305 61.21 15.566 61.2859 16.0003C61.4097 16.7045 61.2807 17.3781 61.2979 18.093C61.3135 18.7463 61.3826 19.353 61.4684 19.9793C61.5214 20.3647 61.7346 20.9142 61.7445 21.1943C61.7804 22.2378 61.8266 23.2651 61.8381 24.3098C61.8558 25.8366 61.8558 27.4688 61.7793 28.9927C61.7705 29.1705 61.5583 29.2615 61.496 29.4284C61.2594 30.0601 61.0613 30.4094 60.9095 31.0671C60.8294 31.4139 60.8268 31.7873 60.6776 32.1106C60.5861 32.3093 60.1779 32.472 60.1088 32.6794C59.9554 33.1411 60.1436 33.6054 60.1098 34.1815C60.0812 34.6775 59.8759 34.9624 59.6695 35.4236C59.528 35.7387 59.2982 36.23 59.2109 36.5586C59.1157 36.9153 59.2868 37.3062 59.1823 37.6603C59.1272 37.8454 58.8745 37.9348 58.8345 38.1241C58.7341 38.5967 58.9213 39.1124 58.7762 39.5731C58.6946 39.8341 58.6379 39.7961 58.3889 39.9085C58.2121 39.9875 57.7483 40.0774 57.7218 39.8851C57.6095 39.0781 57.8367 38.5177 57.7088 37.7123C57.5591 36.7702 57.165 36.1972 56.9274 35.2728C56.812 34.8241 57.0184 34.013 56.8052 33.6018C56.4215 32.8609 55.1929 32.5614 55.2465 31.729C55.298 30.9237 55.7794 30.3996 56.2697 29.7445C56.6045 29.2958 56.8224 28.5632 57.0309 28.0521C57.1842 27.6752 57.2737 27.2337 57.2804 26.862C57.2908 26.3071 57.1406 26.0656 56.7205 25.7206C55.8428 24.9994 54.4245 24.3399 53.3321 23.8088C53.172 23.731 52.9843 24.0365 52.9843 24.2147C52.9843 24.3928 53.1928 24.5314 53.2136 24.708C53.2744 25.2275 52.9599 25.7666 53.185 26.2384C53.4226 26.737 54.36 26.8821 54.2212 27.4164C54.1276 27.7742 54.0397 27.9003 53.7361 28.075C53.552 28.181 53.3477 28.1738 53.1325 28.1837C52.4867 28.2133 51.8228 27.9845 51.1989 28.1166C50.5214 28.2601 49.9152 28.5731 49.2892 28.885C48.8748 29.092 48.4511 29.3649 47.9925 29.3509ZM53.7034 21.2452C53.6976 20.7337 53.6851 20.2304 53.6862 19.7274C53.6872 19.2832 53.6981 18.8391 53.733 18.3896C53.7559 18.0976 54.0231 17.8748 54.0574 17.584C54.1151 17.1033 53.8198 16.5263 53.9545 16.064C54.0085 15.8763 54.4843 16.0645 54.5919 15.9068C54.6272 15.8551 54.6995 15.5541 54.8196 15.2975C54.8919 15.1436 55.0421 15.0054 55.0421 14.9464C55.0421 14.8605 55.0364 14.2501 55.1009 13.7213C55.1383 13.4143 55.1856 13.1551 55.2324 13.1531C55.2787 13.151 55.3255 13.4055 55.4882 13.6172C55.6754 13.8608 55.7388 14.1024 55.9026 14.36C55.9993 14.5121 56.1033 14.6911 56.2629 14.753C56.4662 14.8321 56.7095 14.7209 56.9118 14.8025C57.0631 14.8635 57.1 15.1009 57.2362 15.1955C57.3283 15.2595 57.5393 15.1376 57.5607 15.2545C57.6568 15.7809 57.5737 16.4854 57.6574 17.0142C57.6776 17.1409 57.9579 17.082 57.9641 17.2107C58.0067 18.1316 58.0281 19.054 58.0249 19.9765C58.0223 20.7904 58.001 21.6046 57.9589 22.4179C57.9475 22.6497 57.335 22.6659 57.164 22.5358C56.8333 22.2838 56.6237 21.9914 56.1912 21.8873C56.0108 21.8441 56.0196 21.5584 55.8485 21.5014C55.469 21.375 54.9902 21.3434 54.5934 21.3434C54.3345 21.3434 53.9607 21.4348 53.7034 21.4023C53.656 21.3964 53.7039 21.2972 53.7034 21.2452ZM66.0162 5.37175C66.0172 5.90161 66.0739 6.47571 66.0754 7.03052C66.078 7.74453 66.0261 8.38418 66.0287 9.10391C66.0313 9.87033 66.0884 10.7169 66.0884 11.4664C66.0884 12.0757 65.9772 13.2468 66.0245 13.7528C66.0848 14.4034 66.1207 14.5162 67.0103 14.5162C67.4408 14.5162 68.0241 14.0746 68.4541 13.6283C68.7484 13.3229 68.7042 12.7956 68.817 12.5675C68.9834 12.2322 69.2678 11.9256 69.327 11.5364C69.403 11.0357 69.2199 10.6225 69.5537 10.3022C69.6853 10.1756 69.8095 8.7381 69.8095 8.42178C69.8095 7.9709 69.3359 7.30228 68.7915 6.70406C68.4193 6.29472 67.9726 5.92734 67.7824 5.64695C67.4335 5.13357 67.1725 4.90834 66.7591 4.816C66.0042 4.64739 66.0156 4.7167 66.0162 5.37175ZM62.0304 33.5862C61.8895 34.1425 62.318 34.3697 62.8249 34.6973C63.3308 35.0248 63.9162 35.4532 64.4673 35.905C65.4001 36.6693 66.0349 38.0643 66.6416 39.4379C66.9541 39.1057 66.7337 37.5574 66.9089 36.6298C66.9463 36.4312 67.1605 36.2877 67.1808 36.0865C67.2526 35.3653 67.2702 34.6318 67.1808 33.9127C67.147 33.6444 66.8876 33.4484 66.8184 33.1879C66.7638 32.9836 66.7768 32.7605 66.8184 32.5536C66.8688 32.3009 67.0669 32.0857 67.0898 31.8288C67.1584 31.077 67.2032 30.3107 67.0898 29.5646C67.0472 29.2828 66.6156 29.1237 66.637 28.8398C66.6552 28.6048 67.1631 28.622 67.1808 28.387C67.2302 27.7136 66.9968 27.0637 66.9136 26.394C66.7254 24.8884 66.6156 23.3739 66.4602 21.8648C66.4046 21.3209 66.1872 20.7732 66.2793 20.2343C66.5626 19.4991 66.8215 18.7439 67.0945 18.1509C67.2276 17.9761 67.4033 18.3175 67.5385 18.4906C67.9799 19.0543 68.5664 19.7519 68.6933 20.4563C68.8487 21.3201 68.3808 22.0843 68.4806 22.9564C68.5097 23.2108 68.9017 23.1652 68.9922 23.4047C69.4248 24.5493 69.7763 25.7326 69.9889 26.9375C70.2312 28.3105 70.3092 29.7107 70.3513 31.1046C70.3695 31.7108 70.3435 32.3347 70.1698 32.916C69.9224 33.7463 69.4066 34.4082 69.1508 35.2104C68.883 36.0496 68.7967 36.3002 69.6848 36.2997C70.0362 36.2992 70.4464 36.3132 70.7178 36.4489C71.4447 36.8123 71.7447 37.6504 72.4346 38.0794C72.5838 38.1719 72.7788 38.3003 72.9842 38.4152C73.9627 38.9632 74.0703 38.5847 74.2741 37.7279C74.5429 36.595 74.611 35.5733 74.7852 34.456C74.8741 33.8893 74.8554 33.308 74.8804 32.7351C74.9157 31.9183 74.9771 31.1056 74.935 30.2888C74.9157 29.9077 74.9178 29.4908 74.6677 29.2022C74.48 28.9854 73.9263 29.2069 73.8525 28.9303C73.7511 28.5512 74.298 28.2357 74.3053 27.8431C74.1556 26.7841 74.0183 25.8364 74.0006 24.7925C73.9804 23.5619 73.7168 24.1813 73.3086 23.699C73.0622 23.4075 72.9852 23.1505 72.9468 22.7706C72.8329 21.6588 72.9941 20.4284 72.8241 19.3239C72.7482 18.83 72.5173 18.3428 72.1903 17.9651C72.0717 17.8282 71.8544 18.0319 71.7733 17.8699C71.6376 17.5986 72.0546 17.4128 71.8955 17.1544C71.5258 16.5541 70.7522 16.0959 70.1657 15.7051C69.99 15.5879 69.6806 15.8545 69.5314 15.7051C69.3822 15.5557 69.3858 15.0969 69.5314 14.9441C70.5759 14.7929 71.1135 14.3011 71.6236 13.7123C72.3156 12.914 72.654 12.0242 73.0008 11.0265C73.161 10.5666 72.9561 10.0292 73.0097 9.54539C73.109 8.65013 73.5785 7.83713 73.422 6.95009C73.1948 5.66011 72.5589 4.50411 71.8279 3.41731C71.4218 2.81399 70.7912 2.27925 70.134 1.96797C69.5855 1.70822 69.1264 1.92555 68.544 1.75517C67.8697 1.55791 67.3295 1.1807 66.6416 1.0397C66.1061 0.929894 65.5441 1.15336 65.0112 1.0305C64.6784 0.953758 64.6243 0.579711 64.2864 0.527822C64.0535 0.491948 63.8153 0.829486 63.5803 0.849348C61.9556 0.986971 60.622 0.672263 59.005 0.885587C58.7638 0.917459 58.8324 1.18652 59.0326 1.32492C59.3315 1.5318 59.7859 1.42963 60.1197 1.57402C60.7187 1.83356 61.1793 2.18248 61.6233 2.66102C61.9909 3.05679 62.1407 3.497 62.4745 4.11036C62.6117 4.36179 63.0063 3.87899 63.2902 3.83859C63.6484 3.78743 63.8975 3.77781 64.1237 4.0606C64.327 4.31427 63.9063 4.65234 63.6666 4.87117C63.1816 5.31331 62.8514 5.54748 62.4225 5.84103C62.1292 6.04198 61.6098 6.22239 61.392 6.61493C60.9085 7.48581 61.4819 8.47621 61.6681 9.45481C61.7362 9.81173 61.8142 10.1607 61.8953 10.5147C62.1583 11.6657 62.07 12.6238 62.2301 13.7936C62.2821 14.1718 62.5504 14.5012 62.5925 14.8806C62.6424 15.3316 62.5613 15.6638 62.6289 16.1125C62.657 16.3036 62.8134 16.5061 62.8644 16.6923C63.09 17.5207 63.2887 18.561 63.3173 19.4191C63.4098 22.2257 63.2434 24.9753 63.3848 27.7802C63.3978 28.0355 63.781 28.1364 63.8335 28.387C63.9152 28.7753 63.6562 29.2214 63.5257 29.5963C62.9897 31.1311 62.3611 32.2796 62.0304 33.5862Z" fill="white"/>
</svg>
