<svg width="160" height="22" viewBox="0 0 160 22" fill="none" xmlns="http://www.w3.org/2000/svg">
<path d="M19.2717 9.70153C20.4257 9.71131 20.8023 9.38368 20.9441 9.16852C21.482 8.46924 20.6409 7.12448 18.6702 6.10246C19.433 4.6599 19.9661 3.36403 20.2301 2.43493C20.3768 1.92636 20.279 1.61829 20.2497 1.5645C20.1763 2.01438 19.57 3.64766 18.1763 5.86285C17.1005 5.37873 15.7459 4.99731 14.1469 4.84083C13.7606 4.11221 12.6457 2.09751 11.5454 1.01681C10.8217 0.307756 10.2446 0.0436939 9.78987 0.00946355C9.19329 -0.0589971 8.81675 0.258856 8.61137 0.483798C7.87297 1.28088 7.5649 2.58652 7.53556 4.09754C7.2226 3.56453 6.79716 3.04129 6.31305 2.98261H6.30327C5.41328 2.83102 4.65532 4.23935 4.75801 6.4741C3.11007 6.53278 1.70663 6.7235 0.762847 6.95822C0.337413 7.0658 0.0635706 7.27118 0 7.37387C0.0440104 7.3592 0.963339 6.97778 4.79713 6.97778C5.02208 9.25654 6.07344 11.3544 5.91695 10.9827C5.49641 11.6429 4.2739 13.6625 3.8827 15.1833C3.62841 16.1662 3.69687 16.8019 3.88759 17.2078C4.1272 17.7554 4.59175 17.9266 4.88516 17.9902C5.96097 18.2347 7.26661 17.8337 8.61137 17.0806C8.28863 17.6332 8.01478 18.308 8.22017 18.7726C8.53313 19.6185 10.1322 19.5745 12.0197 18.3667C12.8853 19.7506 13.741 20.8557 14.4159 21.5501C14.5283 21.6675 14.6506 21.7702 14.7924 21.8533C15.0124 21.9902 15.1591 22 15.1591 22C14.8071 21.7115 13.697 20.3667 12.4696 18.0537C13.4232 17.3642 14.4305 16.3813 15.3694 15.0757C20.6458 15.2713 21.526 14.0097 21.7314 13.7163C22.3671 12.8752 21.883 11.2615 19.2717 9.70153ZM15.9269 14.2688C16.9489 12.6502 17.2325 11.3544 17.1934 10.2981C18.3915 11.0512 19.2228 11.9118 19.301 12.8263C19.3499 13.3837 18.9538 14.0781 15.9269 14.2688ZM9.31065 16.665C9.73119 16.396 10.1517 16.1026 10.5674 15.7848C10.8559 16.3569 11.1542 16.9046 11.4525 17.4278C9.70674 18.3667 8.49401 17.9755 9.31065 16.665ZM18.5528 9.30055C18.1127 9.07072 17.6433 8.85556 17.1592 8.65506C17.5015 8.13672 17.8291 7.60859 18.1372 7.07069C19.8194 8.10738 20.1128 9.35434 18.5528 9.30055ZM11.9904 17.11C11.7557 16.621 11.5161 16.0977 11.2813 15.5451C13.1396 15.5989 13.966 14.7383 14.0002 14.6698C14.0002 14.6747 12.9244 15.3398 11.3107 15.1979C12.6261 14.0977 13.8486 12.8898 14.9684 11.5891C15.345 11.149 15.7019 10.704 16.0393 10.2541C16.0247 10.2394 15.9709 10.127 15.3303 9.74065C13.1102 12.3324 10.9341 13.951 9.62361 14.7236C8.73851 14.2444 7.86808 13.3593 7.22749 12.083C6.36684 10.3666 5.93652 8.54259 5.87294 7.09514C6.40107 7.13426 6.95853 7.18805 7.54045 7.2614C6.582 8.84089 6.9243 9.97049 6.96343 10.0243C6.96343 10.0194 6.9243 8.77243 7.82896 7.46189C8.21528 9.7162 8.86076 11.9216 9.75075 14.0292C9.78987 14.0146 9.82899 14.0683 10.5527 13.6723C9.42312 10.4693 9.10038 7.73574 9.0906 6.21982C9.95124 5.68681 11.1591 5.36895 12.5968 5.45208C14.5137 5.56456 16.3083 6.10735 17.5944 6.7724C17.2863 7.22228 16.9538 7.68683 16.5919 8.16606C15.7019 6.54256 14.5626 6.2785 14.4941 6.28828C14.499 6.28828 15.609 6.89465 16.279 8.31765C14.6652 7.72596 13.0075 7.27118 11.3205 6.95333C10.7581 6.85064 10.1957 6.76262 9.6285 6.69416C9.62361 6.71372 9.55026 6.7724 9.53559 7.56947C12.8804 8.19051 15.4085 9.28588 16.724 10.0292C16.7582 11.0414 16.4257 12.2492 15.6335 13.4473C14.5772 15.0415 13.208 16.3275 11.9904 17.11ZM13.1689 4.77726C11.252 4.70391 10.005 5.09511 9.10038 5.66725C9.1884 3.41783 10.0148 2.38603 10.7434 2.43004C11.4672 2.24421 13.1004 4.66968 13.1689 4.77726ZM7.55023 4.90929C7.56979 5.42763 7.61869 5.96554 7.68715 6.51322C7.06123 6.47899 6.44997 6.45943 5.86316 6.45943C5.85827 6.59636 5.85827 4.26869 6.9243 4.32737H6.92919C7.17859 4.37139 7.38886 4.62078 7.55023 4.90929ZM6.34728 11.8727C7.23727 13.5793 8.21039 14.4742 9.14928 14.9828C7.13947 16.0488 5.81915 15.8434 5.5013 15.1784C5.49152 15.1637 5.02208 14.5133 6.34728 11.8727Z" fill="white"/>
<path d="M57.7955 20H60.8587C63.6712 20 65.9824 17.6887 65.9824 14.8763V5.12375C65.9824 2.31125 63.6712 0 60.8587 0H57.7337C57.6718 0 57.6068 0.061875 57.6068 0.12375V19.8762C57.6068 19.9381 57.6687 20 57.7955 20ZM61.6074 9.00062C62.7337 9.00062 63.6062 9.93813 63.6062 10.9994C63.6062 12.1256 62.6687 12.9981 61.6074 12.9981C60.4812 12.9981 59.6087 12.1256 59.6087 10.9994C59.5437 9.87625 60.4812 9.00062 61.6074 9.00062ZM55.4812 0H51.1062C48.2937 0 45.9824 2.31125 45.9824 5.12375V14.8763C45.9824 17.6887 48.2937 20 51.1062 20H55.4812C55.543 20 55.608 19.9381 55.608 19.8762V0.12375C55.608 0.061875 55.5462 0 55.4812 0ZM54.0455 18.3756H51.1062C50.6464 18.3764 50.191 18.2864 49.7661 18.1108C49.3412 17.9352 48.9552 17.6774 48.6301 17.3523C48.305 17.0272 48.0473 16.6412 47.8717 16.2163C47.6961 15.7914 47.6061 15.336 47.6068 14.8763V5.12375C47.6061 4.664 47.6961 4.20862 47.8717 3.78372C48.0473 3.35882 48.305 2.97276 48.6301 2.64767C48.9552 2.32257 49.3412 2.06484 49.7661 1.88924C50.191 1.71364 50.6464 1.62363 51.1062 1.62437H53.9837L54.0455 18.3756ZM49.1074 5.99937C49.1074 7.06063 49.9212 7.87437 50.9824 7.87437C52.0437 7.87437 52.8574 7.06063 52.8574 5.99937C52.8574 4.93813 52.0437 4.12437 50.9824 4.12437C49.9212 4.12437 49.1074 4.93813 49.1074 5.99937Z" fill="white"/>
<path d="M94.4124 1.72C94.4824 1.66 94.5524 1.6 94.6024 1.56C96.1624 0.55 97.9824 0 99.9824 0C101.862 0 103.622 0.5 105.122 1.42C105.232 1.5 105.522 1.69 105.682 1.88C104.232 0.28 99.9824 3.7 99.9824 3.7C98.4824 2.57 97.1524 1.8 96.1424 1.5C95.2924 1.29 94.7124 1.5 94.4424 1.7L94.4124 1.72ZM107.322 3.21C107.272 3.16 107.222 3.11 107.182 3.06C106.822 2.66 106.362 2.56 105.982 2.59C105.592 2.71 103.882 3.32 101.782 5.31C101.782 5.31 104.152 7.61 105.602 9.96C107.052 12.31 107.912 14.16 107.382 16.73C108.982 14.95 109.982 12.59 109.982 10C109.982 7.38 108.982 5 107.322 3.21ZM103.712 10.96C103.062 10.24 102.112 9.21 100.842 7.95C100.572 7.68 100.282 7.4 99.9824 7.1C99.9824 7.1 99.5124 7.56 98.9124 8.17C98.1424 8.94 97.1524 9.95 96.5924 10.54C95.6124 11.59 92.7924 14.89 92.6324 16.74C92.6324 16.74 91.9824 15.28 93.3824 11.89C94.2824 9.68 96.9824 6.36 98.1324 5.28C98.1324 5.28 97.1024 4.14 95.8024 3.35L95.7524 3.32C95.1224 2.95 94.4424 2.66 93.7824 2.62C93.1124 2.67 92.6924 3.16 92.6924 3.16C90.9487 5.01024 89.9791 7.45758 89.9824 10C89.9824 12.6522 91.036 15.1957 92.9114 17.0711C93.8399 17.9997 94.9423 18.7362 96.1556 19.2388C97.3689 19.7413 98.6692 20 99.9824 20C102.912 20 105.552 18.74 107.382 16.73C107.382 16.73 107.172 15.4 105.822 13.5C105.512 13.07 104.352 11.69 103.712 10.96Z" fill="white"/>
<path d="M159.665 15.3065C159.158 15.9462 157.918 16.4013 157.918 16.4013L148.693 19.715V17.271L155.482 14.853C156.253 14.5777 156.371 14.1858 155.744 13.9817C155.119 13.776 153.987 13.8359 153.218 14.1113L148.693 15.7049V13.1687L148.953 13.0812C148.953 13.0812 150.26 12.618 152.099 12.414C153.937 12.2115 156.188 12.4415 157.955 13.1104C159.947 13.742 160.171 14.6684 159.665 15.3065ZM149.57 11.1475V4.89594C149.57 4.16228 149.436 3.48692 148.748 3.29581C148.22 3.12576 147.893 3.61649 147.893 4.34853V20L143.672 18.6606V0C145.467 0.33363 148.081 1.12074 149.486 1.59527C153.061 2.82128 154.272 4.34853 154.272 7.7901C154.272 11.1442 152.202 12.4156 149.57 11.1458V11.1475ZM135.927 17.0184C133.883 16.4386 133.543 15.2401 134.475 14.5502C135.336 13.9121 136.8 13.4327 136.8 13.4327L142.853 11.2786V13.7323L138.496 15.2919C137.728 15.5673 137.61 15.9576 138.235 16.1632C138.86 16.3673 139.992 16.309 140.762 16.0337L142.851 15.2741V17.4702L142.435 17.5399C140.255 17.8928 138.023 17.7133 135.927 17.0168V17.0184Z" fill="white"/>
</svg>
